<?xml version="1.0" standalone="no"?><!DOCTYPE svg PUBLIC "-//W3C//DTD SVG 1.1//EN" "http://www.w3.org/Graphics/SVG/1.1/DTD/svg11.dtd"><svg t="1610275107396" class="icon" viewBox="0 0 1024 1024" version="1.1" xmlns="http://www.w3.org/2000/svg" p-id="3732" xmlns:xlink="http://www.w3.org/1999/xlink" width="200" height="200"><defs><style type="text/css"></style></defs><path d="M342.2 930.1c-14.6 0-26.9-11.4-28.1-25.9l-54.4-709.1c-0.6-7.9 2-15.5 7.4-21.4 5.4-5.9 12.8-9.1 20.7-9.1h463.6c8 0 15.3 3.2 20.7 9.1 5.4 5.9 8 13.5 7.4 21.4l-54.4 709.1c-1.2 14.5-13.5 25.9-28.1 25.9H342.2z" fill="#212347" p-id="3733"></path><path d="M751.4 189.6c0.4 0 1.4 0 2.3 1 0.9 1 0.9 2 0.8 2.4v0.2l-54.3 708.9c-0.1 1.6-1.5 2.9-3.2 2.9H342.2c-1.6 0-3-1.3-3.2-2.9l-54.3-708.9v-0.2c0-0.4-0.1-1.4 0.8-2.4s2-1 2.3-1h463.6m0-50H287.8c-31.1 0-55.5 26.5-53 57.5l54.4 709.1c2.2 27.6 25.3 48.9 53 48.9H697c27.7 0 50.8-21.3 53-48.9l54.4-709.1c2.5-31-21.9-57.5-53-57.5z" fill="#212347" p-id="3734"></path><path d="M738 373c1.6 0 3-0.3 3.2-0.7l13.3-181.4c0-0.1 0.1-0.3-0.8-0.6s-2-0.2-2.3-0.2H287.8c-0.4 0-1.4-0.1-2.3 0.2-0.9 0.3-0.9 0.5-0.8 0.6L298 372.3c0.1 0.4 1.5 0.7 3.2 0.7H738z" fill="#FFFFFF" p-id="3735"></path><path d="M754.1 859.1h-469l-25-295.5h519z" fill="#D60000" p-id="3736"></path><path d="M362 635.8h19.4v77.6l41-39h25.1l-41.9 39 45.6 55.6h-24.9l-34-43.2-10.8 10.1V769H362V635.8zM537.5 687.6c7.4 9.6 11.2 22.8 11.3 39.5h-71.7c0.7 9.4 3.2 16.5 7.5 21.2 4.5 4.9 10.6 7.3 18.1 7.3 6.7 0 12.2-1.6 16.5-4.8 3-2.3 5.9-6.4 8.6-12.3h19.4c-2.3 9-6.7 16.4-13 22.1-8.3 7.2-18.7 10.8-31.3 10.8-14 0-25.1-4.3-33.1-13-8.8-9.2-13.2-21.5-13.2-37 0-14.2 4.1-25.9 12.4-35.3 8.1-9.6 19.1-14.5 33.1-14.5 15.7 0.2 27.4 5.5 35.4 16z m-52.2 6.6c-4.1 4.4-6.8 10.5-7.9 18.3h51.1c-1.8-16.5-10.4-24.7-25.8-24.7-7.3-0.1-13.1 2.1-17.4 6.4zM567.5 635.8h19.4V769h-19.4V635.8zM686.4 687.6c7.4 9.6 11.2 22.8 11.3 39.5H626c0.7 9.4 3.2 16.5 7.5 21.2 4.5 4.9 10.6 7.3 18.1 7.3 6.7 0 12.2-1.6 16.5-4.8 3-2.3 5.9-6.4 8.6-12.3h19.4c-2.3 9-6.7 16.4-13 22.1-8.3 7.2-18.7 10.8-31.3 10.8-14 0-25.1-4.3-33.1-13-8.8-9.2-13.2-21.5-13.2-37 0-14.2 4.1-25.9 12.4-35.3 8.1-9.6 19.1-14.5 33.1-14.5 15.7 0.2 27.5 5.5 35.4 16z m-52.1 6.6c-4.1 4.4-6.8 10.5-7.9 18.3h51.1c-1.8-16.5-10.4-24.7-25.8-24.7-7.4-0.1-13.1 2.1-17.4 6.4z" fill="#FFFFFF" p-id="3737"></path><path d="M588.5 446.8c-3.7 0-7.5-0.8-11.1-2.6-12.4-6.1-17.5-21.1-11.3-33.5L729.9 79.1c3.1-6.2 8.6-10.9 15.3-12.9 6.7-2 13.9-1.1 19.9 2.5l116.8 69.4c11.9 7.1 15.8 22.4 8.7 34.3-7.1 11.9-22.4 15.8-34.3 8.7l-93.5-55.6-151.9 307.3c-4.4 8.9-13.2 14-22.4 14z" fill="#212347" p-id="3738"></path></svg>